# Aspose.3D Wavefront OBJ Exporter
# Copyright 2004-2021 Aspose Pty Ltd.
# File created: 12/22/2021 14:56:22


#
# object obj_47327007
#

v 4635 75 450
v 4635 2075 450
v 5635 75 450
v 5635 2075 450
v 5635 75 550
v 5635 2075 550
v 4635 75 550
v 4635 2075 550
v 5635 2075 875
v 4635 2075 875
v 5635 2075 50
v 5585 2075 400
v 4685 2075 400
v 4635 2075 50
v 4685 2075 50
v 5585 2075 50
v 4685 2125 400
v 5585 2125 400
v 4685 2125 50
v 5585 2125 50
v 5635 2125 50
v 5635 2125 875
v 4635 2125 875
v 4635 2125 50
v 5585 74.9018630981445312 400
v 5585 24.9018669128417968 400
v 4685 74.9018630981445312 400
v 4685 24.9018669128417968 400
v 4685 74.9018630981445312 50
v 4685 24.9018669128417968 50
v 5585 74.9018630981445312 50
v 5585 24.9018669128417968 50
v 5631.869140625 74.9018630981445312 50
v 5631.869140625 74.9018630981445312 875
v 4631.869140625 74.9018630981445312 875
v 4631.869140625 74.9018630981445312 50
v 4631.869140625 24.9018669128417968 50
v 4631.869140625 24.9018669128417968 875
v 5631.869140625 24.9018669128417968 875
v 5631.869140625 24.9018669128417968 50
# 40 vertices

vn 0 0 -1
vn 0 0 1
vn 0 -1 0
vn 1 0 0
vn -1 0 0
vn 0 1 0
# 6 vertex normals

g obj_47327007
s 1
f 1//1 2//1 3//1
f 3//1 2//1 4//1
f 5//2 6//2 7//2
f 7//2 6//2 8//2
f 7//3 1//3 5//3
f 5//3 1//3 3//3
f 6//3 9//3 8//3
f 8//3 9//3 10//3
f 11//3 4//3 12//3
f 12//3 4//3 2//3
f 12//3 2//3 13//3
f 13//3 2//3 14//3
f 13//3 14//3 15//3
f 12//3 16//3 11//3
f 13//1 17//1 12//1
f 12//1 17//1 18//1
f 19//4 17//4 15//4
f 15//4 17//4 13//4
f 16//5 12//5 20//5
f 20//5 12//5 18//5
f 20//6 18//6 21//6
f 21//6 18//6 22//6
f 22//6 18//6 23//6
f 23//6 18//6 17//6
f 23//6 17//6 24//6
f 24//6 17//6 19//6
f 19//1 15//1 24//1
f 24//1 15//1 14//1
f 9//2 22//2 10//2
f 10//2 22//2 23//2
f 16//1 20//1 11//1
f 11//1 20//1 21//1
f 24//5 2//5 23//5
f 23//5 2//5 8//5
f 23//5 8//5 10//5
f 24//5 14//5 2//5
f 1//5 7//5 2//5
f 2//5 7//5 8//5
f 9//4 6//4 22//4
f 22//4 6//4 4//4
f 22//4 4//4 21//4
f 21//4 4//4 11//4
f 5//4 3//4 6//4
f 6//4 3//4 4//4
f 25//1 26//1 27//1
f 27//1 26//1 28//1
f 29//4 27//4 30//4
f 30//4 27//4 28//4
f 25//5 31//5 26//5
f 26//5 31//5 32//5
f 31//6 25//6 33//6
f 33//6 25//6 34//6
f 34//6 25//6 27//6
f 34//6 27//6 35//6
f 35//6 27//6 36//6
f 36//6 27//6 29//6
f 29//1 30//1 36//1
f 36//1 30//1 37//1
f 30//3 28//3 37//3
f 37//3 28//3 38//3
f 38//3 28//3 39//3
f 39//3 28//3 26//3
f 39//3 26//3 40//3
f 40//3 26//3 32//3
f 39//2 34//2 38//2
f 38//2 34//2 35//2
f 32//1 31//1 40//1
f 40//1 31//1 33//1
f 35//5 36//5 38//5
f 38//5 36//5 37//5
f 39//4 40//4 34//4
f 34//4 40//4 33//4
#72 polygons

