# Aspose.3D Wavefront OBJ Exporter
# Copyright 2004-2021 Aspose Pty Ltd.
# File created: 12/23/2021 08:59:12


#
# object obj_38433488
#

v 19823.451171875 2427.176025390625 3750
v 19823.451171875 2427.176025390625 3700
v 19827.029296875 2400 3750
v 19827.029296875 2400 3700
v 19823.451171875 2372.823974609375 3750
v 19823.451171875 2372.823974609375 3700
v 19812.962890625 2347.5 3750
v 19812.962890625 2347.5 3700
v 19796.275390625 2325.75390625 3750
v 19796.275390625 2325.75390625 3700
v 19774.529296875 2309.0673828125 3750
v 19774.529296875 2309.0673828125 3700
v 19749.205078125 2298.577880859375 3750
v 19749.205078125 2298.577880859375 3700
v 19722.029296875 2295 3750
v 19722.029296875 2295 3700
v 19694.853515625 2298.577880859375 3750
v 19694.853515625 2298.577880859375 3700
v 19669.529296875 2309.0673828125 3750
v 19669.529296875 2309.0673828125 3700
v 19647.783203125 2325.75390625 3750
v 19647.783203125 2325.75390625 3700
v 19631.09765625 2347.5 3750
v 19631.09765625 2347.5 3700
v 19620.607421875 2372.823974609375 3750
v 19620.607421875 2372.823974609375 3700
v 19617.029296875 2400 3750
v 19617.029296875 2400 3700
v 19620.607421875 2427.176025390625 3750
v 19620.607421875 2427.176025390625 3700
v 19631.09765625 2452.5 3750
v 19631.09765625 2452.5 3700
v 19647.783203125 2474.24609375 3750
v 19647.783203125 2474.24609375 3700
v 19669.529296875 2490.9326171875 3750
v 19669.529296875 2490.9326171875 3700
v 19694.853515625 2501.422119140625 3750
v 19694.853515625 2501.422119140625 3700
v 19722.029296875 2505 3750
v 19722.029296875 2505 3700
v 19749.205078125 2501.422119140625 3750
v 19749.205078125 2501.422119140625 3700
v 19774.529296875 2490.9326171875 3750
v 19774.529296875 2490.9326171875 3700
v 19796.275390625 2474.24609375 3750
v 19796.275390625 2474.24609375 3700
v 19812.962890625 2452.5 3750
v 19812.962890625 2452.5 3700
v 14023.4521484375 2427.176025390625 3750
v 14023.4521484375 2427.176025390625 3700
v 14027.0302734375 2400 3750
v 14027.0302734375 2400 3700
v 14023.4521484375 2372.823974609375 3750
v 14023.4521484375 2372.823974609375 3700
v 14012.962890625 2347.5 3750
v 14012.962890625 2347.5 3700
v 13996.2763671875 2325.75390625 3750
v 13996.2763671875 2325.75390625 3700
v 13974.5302734375 2309.0673828125 3750
v 13974.5302734375 2309.0673828125 3700
v 13949.2060546875 2298.577880859375 3750
v 13949.2060546875 2298.577880859375 3700
v 13922.0302734375 2295 3750
v 13922.0302734375 2295 3700
v 13894.853515625 2298.577880859375 3750
v 13894.853515625 2298.577880859375 3700
v 13869.5302734375 2309.0673828125 3750
v 13869.5302734375 2309.0673828125 3700
v 13847.783203125 2325.75390625 3750
v 13847.783203125 2325.75390625 3700
v 13831.0966796875 2347.5 3750
v 13831.0966796875 2347.5 3700
v 13820.607421875 2372.823974609375 3750
v 13820.607421875 2372.823974609375 3700
v 13817.0302734375 2400 3750
v 13817.0302734375 2400 3700
v 13820.607421875 2427.176025390625 3750
v 13820.607421875 2427.176025390625 3700
v 13831.0966796875 2452.5 3750
v 13831.0966796875 2452.5 3700
v 13847.783203125 2474.24609375 3750
v 13847.783203125 2474.24609375 3700
v 13869.5302734375 2490.9326171875 3750
v 13869.5302734375 2490.9326171875 3700
v 13894.853515625 2501.422119140625 3750
v 13894.853515625 2501.422119140625 3700
v 13922.0302734375 2505 3750
v 13922.0302734375 2505 3700
v 13949.2060546875 2501.422119140625 3750
v 13949.2060546875 2501.422119140625 3700
v 13974.5302734375 2490.9326171875 3750
v 13974.5302734375 2490.9326171875 3700
v 13996.2763671875 2474.24609375 3750
v 13996.2763671875 2474.24609375 3700
v 14012.962890625 2452.5 3750
v 14012.962890625 2452.5 3700
v 16923.451171875 2372.823974609375 3700
v 16923.451171875 2372.823974609375 3750
v 16927.029296875 2400 3700
v 16927.029296875 2400 3750
v 16923.451171875 2427.176025390625 3700
v 16923.451171875 2427.176025390625 3750
v 16912.962890625 2452.5 3700
v 16912.962890625 2452.5 3750
v 16896.275390625 2474.24609375 3700
v 16896.275390625 2474.24609375 3750
v 16874.529296875 2490.9326171875 3700
v 16874.529296875 2490.9326171875 3750
v 16849.205078125 2501.422119140625 3700
v 16849.205078125 2501.422119140625 3750
v 16822.029296875 2505 3700
v 16822.029296875 2505 3750
v 16794.853515625 2501.422119140625 3700
v 16794.853515625 2501.422119140625 3750
v 16769.529296875 2490.9326171875 3700
v 16769.529296875 2490.9326171875 3750
v 16747.783203125 2474.24609375 3700
v 16747.783203125 2474.24609375 3750
v 16731.09765625 2452.5 3700
v 16731.09765625 2452.5 3750
v 16720.607421875 2427.176025390625 3700
v 16720.607421875 2427.176025390625 3750
v 16717.029296875 2400 3700
v 16717.029296875 2400 3750
v 16720.607421875 2372.823974609375 3700
v 16720.607421875 2372.823974609375 3750
v 16731.09765625 2347.5 3700
v 16731.09765625 2347.5 3750
v 16747.783203125 2325.75390625 3700
v 16747.783203125 2325.75390625 3750
v 16769.529296875 2309.0673828125 3700
v 16769.529296875 2309.0673828125 3750
v 16794.853515625 2298.577880859375 3700
v 16794.853515625 2298.577880859375 3750
v 16822.029296875 2295 3700
v 16822.029296875 2295 3750
v 16849.205078125 2298.577880859375 3700
v 16849.205078125 2298.577880859375 3750
v 16874.529296875 2309.0673828125 3700
v 16874.529296875 2309.0673828125 3750
v 16896.275390625 2325.75390625 3700
v 16896.275390625 2325.75390625 3750
v 16912.962890625 2347.5 3700
v 16912.962890625 2347.5 3750
v 19872.029296875 4750 3700
v 19872.029296875 50 3700
v 13772.0302734375 50 3700
v 13772.0302734375 4750 3700
v 13772.0302734375 50 1.0000001111620804E-06
v 19872.029296875 50 1.0000001111620804E-06
v 13772.0302734375 4750 1.0000001111620804E-06
v 19872.029296875 4750 1.0000001111620804E-06
v 19922.029296875 9.99999883788405E-07 3750
v 19922.029296875 4800 3750
v 13722.0302734375 4800 3750
v 13722.0302734375 9.99999883788405E-07 3750
v 13722.0302734375 9.99999883788405E-07 1.0000001111620804E-06
v 19922.029296875 9.99999883788405E-07 1.0000001111620804E-06
v 19922.029296875 4800 1.0000001111620804E-06
v 13722.0302734375 4800 1.0000001111620804E-06
# 160 vertices

vn -0.99144488573074336 -0.13052618503570556 0
vn -0.99144488573074336 0.13052618503570556 0
vn -0.92387950420379632 0.38268342614173888 0
vn -0.79335331916809088 0.60876142978668216 0
vn -0.60876142978668216 0.79335331916809088 0
vn -0.38268342614173888 0.92387950420379632 0
vn -0.13052618503570556 0.99144488573074336 0
vn 0.13052618503570556 0.99144488573074336 0
vn 0.38268342614173888 0.92387950420379632 0
vn 0.60876142978668216 0.79335331916809088 0
vn 0.79335331916809088 0.60876142978668216 0
vn 0.92387950420379632 0.38268342614173888 0
vn 0.92387950420379632 0.38268342614173888 3.483954720515949E-15
vn 0.99144488573074336 0.13052618503570556 1.1871288516755187E-15
vn 0.99144488573074336 0.13052618503570556 0
vn 0.99144488573074336 -0.13052618503570556 0
vn 0.99144488573074336 -0.13052618503570556 -1.1924250310573446E-15
vn 0.92387950420379632 -0.38268342614173888 -3.4804854853222322E-15
vn 0.92387950420379632 -0.38268342614173888 0
vn 0.79335331916809088 -0.60876142978668216 0
vn 0.60876142978668216 -0.79335331916809088 0
vn 0.38268342614173888 -0.92387950420379632 0
vn 0.13052618503570556 -0.99144488573074336 0
vn -0.13052618503570556 -0.99144488573074336 0
vn -0.38268342614173888 -0.92387950420379632 0
vn -0.60876142978668216 -0.79335331916809088 0
vn -0.79335331916809088 -0.60876142978668216 0
vn -0.92387950420379632 -0.38268342614173888 0
vn -0.38268342614173888 0.92387950420379632 1.3935818882063796E-14
vn -0.13052618503570556 0.99144488573074336 4.748515406702075E-15
vn -0.13052618503570556 -0.99144488573074336 -4.7489622165817515E-15
vn -0.38268342614173888 -0.92387950420379632 -1.3921941941288929E-14
vn 0.92387950420379632 -0.38268342614173888 -3.483954720515949E-15
vn 0.99144488573074336 -0.13052618503570556 -1.1871288516755187E-15
vn 0.99144488573074336 0.13052618503570556 1.1924250310573446E-15
vn 0.92387950420379632 0.38268342614173888 3.4804854853222322E-15
vn 0 0 -1
vn 0 1 0
vn 1 0 0
vn 0 -1 0
vn -1 0 0
vn 0 0 1
# 42 vertex normals

g obj_38433488
s 1
f 1//1 2//1 3//1
f 3//1 2//1 4//1
f 3//2 4//2 5//2
f 5//2 4//2 6//2
f 5//3 6//3 7//3
f 7//3 6//3 8//3
f 7//4 8//4 9//4
f 9//4 8//4 10//4
f 9//5 10//5 11//5
f 11//5 10//5 12//5
f 11//6 12//6 13//6
f 13//6 12//6 14//6
f 13//7 14//7 15//7
f 15//7 14//7 16//7
f 15//8 16//8 17//8
f 17//8 16//8 18//8
f 17//9 18//9 19//9
f 19//9 18//9 20//9
f 19//10 20//10 21//10
f 21//10 20//10 22//10
f 21//11 22//11 23//11
f 23//11 22//11 24//11
f 23//12 24//12 25//12
f 25//13 24//13 26//13
f 25//14 26//14 27//14
f 27//15 26//15 28//15
f 27//16 28//16 29//16
f 29//17 28//17 30//17
f 29//18 30//18 31//18
f 31//19 30//19 32//19
f 31//20 32//20 33//20
f 33//20 32//20 34//20
f 33//21 34//21 35//21
f 35//21 34//21 36//21
f 35//22 36//22 37//22
f 37//22 36//22 38//22
f 37//23 38//23 39//23
f 39//23 38//23 40//23
f 39//24 40//24 41//24
f 41//24 40//24 42//24
f 41//25 42//25 43//25
f 43//25 42//25 44//25
f 43//26 44//26 45//26
f 45//26 44//26 46//26
f 45//27 46//27 47//27
f 47//27 46//27 48//27
f 47//28 48//28 1//28
f 1//28 48//28 2//28
f 49//1 50//1 51//1
f 51//1 50//1 52//1
f 51//2 52//2 53//2
f 53//2 52//2 54//2
f 53//3 54//3 55//3
f 55//3 54//3 56//3
f 55//4 56//4 57//4
f 57//4 56//4 58//4
f 57//5 58//5 59//5
f 59//5 58//5 60//5
f 59//6 60//6 61//6
f 61//29 60//29 62//29
f 61//30 62//30 63//30
f 63//7 62//7 64//7
f 63//8 64//8 65//8
f 65//8 64//8 66//8
f 65//9 66//9 67//9
f 67//9 66//9 68//9
f 67//10 68//10 69//10
f 69//10 68//10 70//10
f 69//11 70//11 71//11
f 71//11 70//11 72//11
f 71//12 72//12 73//12
f 73//13 72//13 74//13
f 73//14 74//14 75//14
f 75//15 74//15 76//15
f 75//16 76//16 77//16
f 77//17 76//17 78//17
f 77//18 78//18 79//18
f 79//19 78//19 80//19
f 79//20 80//20 81//20
f 81//20 80//20 82//20
f 81//21 82//21 83//21
f 83//21 82//21 84//21
f 83//22 84//22 85//22
f 85//22 84//22 86//22
f 85//23 86//23 87//23
f 87//23 86//23 88//23
f 87//24 88//24 89//24
f 89//31 88//31 90//31
f 89//32 90//32 91//32
f 91//25 90//25 92//25
f 91//26 92//26 93//26
f 93//26 92//26 94//26
f 93//27 94//27 95//27
f 95//27 94//27 96//27
f 95//28 96//28 49//28
f 49//28 96//28 50//28
f 97//2 98//2 99//2
f 99//2 98//2 100//2
f 99//1 100//1 101//1
f 101//1 100//1 102//1
f 101//28 102//28 103//28
f 103//28 102//28 104//28
f 103//27 104//27 105//27
f 105//27 104//27 106//27
f 105//26 106//26 107//26
f 107//26 106//26 108//26
f 107//25 108//25 109//25
f 109//25 108//25 110//25
f 109//24 110//24 111//24
f 111//24 110//24 112//24
f 111//23 112//23 113//23
f 113//23 112//23 114//23
f 113//22 114//22 115//22
f 115//22 114//22 116//22
f 115//21 116//21 117//21
f 117//21 116//21 118//21
f 117//20 118//20 119//20
f 119//20 118//20 120//20
f 119//19 120//19 121//19
f 121//33 120//33 122//33
f 121//34 122//34 123//34
f 123//16 122//16 124//16
f 123//15 124//15 125//15
f 125//35 124//35 126//35
f 125//36 126//36 127//36
f 127//12 126//12 128//12
f 127//11 128//11 129//11
f 129//11 128//11 130//11
f 129//10 130//10 131//10
f 131//10 130//10 132//10
f 131//9 132//9 133//9
f 133//9 132//9 134//9
f 133//8 134//8 135//8
f 135//8 134//8 136//8
f 135//7 136//7 137//7
f 137//7 136//7 138//7
f 137//6 138//6 139//6
f 139//6 138//6 140//6
f 139//5 140//5 141//5
f 141//5 140//5 142//5
f 141//4 142//4 143//4
f 143//4 142//4 144//4
f 143//3 144//3 97//3
f 97//3 144//3 98//3
f 2//37 145//37 4//37
f 4//37 145//37 146//37
f 4//37 146//37 6//37
f 6//37 146//37 8//37
f 8//37 146//37 10//37
f 10//37 146//37 12//37
f 12//37 146//37 14//37
f 14//37 146//37 16//37
f 16//37 146//37 18//37
f 18//37 146//37 20//37
f 20//37 146//37 139//37
f 20//37 139//37 22//37
f 22//37 139//37 141//37
f 22//37 141//37 24//37
f 24//37 141//37 143//37
f 24//37 143//37 26//37
f 26//37 143//37 97//37
f 26//37 97//37 28//37
f 28//37 97//37 99//37
f 28//37 99//37 30//37
f 30//37 99//37 101//37
f 30//37 101//37 32//37
f 32//37 101//37 103//37
f 32//37 103//37 34//37
f 34//37 103//37 105//37
f 34//37 105//37 36//37
f 36//37 105//37 107//37
f 36//37 107//37 145//37
f 145//37 107//37 109//37
f 145//37 109//37 111//37
f 2//37 48//37 145//37
f 145//37 48//37 46//37
f 145//37 46//37 44//37
f 44//37 42//37 145//37
f 145//37 42//37 40//37
f 145//37 40//37 38//37
f 38//37 36//37 145//37
f 50//37 121//37 52//37
f 52//37 121//37 123//37
f 52//37 123//37 54//37
f 54//37 123//37 125//37
f 54//37 125//37 56//37
f 56//37 125//37 127//37
f 56//37 127//37 58//37
f 58//37 127//37 129//37
f 58//37 129//37 60//37
f 60//37 129//37 131//37
f 60//37 131//37 147//37
f 147//37 131//37 133//37
f 147//37 133//37 135//37
f 121//37 50//37 119//37
f 119//37 50//37 96//37
f 119//37 96//37 117//37
f 117//37 96//37 94//37
f 117//37 94//37 115//37
f 115//37 94//37 92//37
f 115//37 92//37 148//37
f 148//37 92//37 90//37
f 148//37 90//37 88//37
f 88//37 86//37 148//37
f 148//37 86//37 84//37
f 148//37 84//37 82//37
f 82//37 80//37 148//37
f 148//37 80//37 78//37
f 148//37 78//37 76//37
f 148//37 76//37 147//37
f 147//37 76//37 74//37
f 147//37 74//37 72//37
f 72//37 70//37 147//37
f 147//37 70//37 68//37
f 147//37 68//37 66//37
f 66//37 64//37 147//37
f 147//37 64//37 62//37
f 147//37 62//37 60//37
f 145//37 111//37 148//37
f 148//37 111//37 113//37
f 148//37 113//37 115//37
f 147//37 135//37 146//37
f 146//37 135//37 137//37
f 146//37 137//37 139//37
f 149//38 147//38 150//38
f 150//38 147//38 146//38
f 151//39 148//39 149//39
f 149//39 148//39 147//39
f 152//40 145//40 151//40
f 151//40 145//40 148//40
f 150//41 146//41 152//41
f 152//41 146//41 145//41
f 5//42 153//42 3//42
f 3//42 153//42 154//42
f 3//42 154//42 1//42
f 1//42 154//42 47//42
f 47//42 154//42 45//42
f 45//42 154//42 43//42
f 43//42 154//42 41//42
f 41//42 154//42 39//42
f 39//42 154//42 37//42
f 37//42 154//42 35//42
f 35//42 154//42 108//42
f 35//42 108//42 33//42
f 33//42 108//42 106//42
f 33//42 106//42 31//42
f 31//42 106//42 104//42
f 31//42 104//42 29//42
f 29//42 104//42 102//42
f 29//42 102//42 27//42
f 27//42 102//42 100//42
f 27//42 100//42 25//42
f 25//42 100//42 98//42
f 25//42 98//42 23//42
f 23//42 98//42 144//42
f 23//42 144//42 21//42
f 21//42 144//42 142//42
f 21//42 142//42 19//42
f 19//42 142//42 140//42
f 19//42 140//42 153//42
f 153//42 140//42 138//42
f 153//42 138//42 136//42
f 5//42 7//42 153//42
f 153//42 7//42 9//42
f 153//42 9//42 11//42
f 11//42 13//42 153//42
f 153//42 13//42 15//42
f 153//42 15//42 17//42
f 17//42 19//42 153//42
f 53//42 126//42 51//42
f 51//42 126//42 124//42
f 51//42 124//42 49//42
f 49//42 124//42 122//42
f 49//42 122//42 95//42
f 95//42 122//42 120//42
f 95//42 120//42 93//42
f 93//42 120//42 118//42
f 93//42 118//42 91//42
f 91//42 118//42 116//42
f 91//42 116//42 155//42
f 155//42 116//42 114//42
f 155//42 114//42 112//42
f 126//42 53//42 128//42
f 128//42 53//42 55//42
f 128//42 55//42 130//42
f 130//42 55//42 57//42
f 130//42 57//42 132//42
f 132//42 57//42 59//42
f 132//42 59//42 156//42
f 156//42 59//42 61//42
f 156//42 61//42 63//42
f 63//42 65//42 156//42
f 156//42 65//42 67//42
f 156//42 67//42 69//42
f 69//42 71//42 156//42
f 156//42 71//42 73//42
f 156//42 73//42 75//42
f 156//42 75//42 155//42
f 155//42 75//42 77//42
f 155//42 77//42 79//42
f 79//42 81//42 155//42
f 155//42 81//42 83//42
f 155//42 83//42 85//42
f 85//42 87//42 155//42
f 155//42 87//42 89//42
f 155//42 89//42 91//42
f 153//42 136//42 156//42
f 156//42 136//42 134//42
f 156//42 134//42 132//42
f 155//42 112//42 154//42
f 154//42 112//42 110//42
f 154//42 110//42 108//42
f 151//37 149//37 157//37
f 157//37 149//37 150//37
f 157//37 150//37 158//37
f 158//37 150//37 152//37
f 158//37 152//37 159//37
f 159//37 152//37 151//37
f 159//37 151//37 160//37
f 160//37 151//37 157//37
f 156//40 157//40 153//40
f 153//40 157//40 158//40
f 155//41 160//41 156//41
f 156//41 160//41 157//41
f 154//38 159//38 155//38
f 155//38 159//38 160//38
f 153//39 158//39 154//39
f 154//39 158//39 159//39
#328 polygons

