{"accessors" : [{"bufferView" : 0, "byteOffset" : 0, "componentType" : 5123, "count" : 408, "type" : "SCALAR", "max" : [380], "min" : [0]}, {"bufferView" : 1, "byteOffset" : 0, "componentType" : 5126, "count" : 381, "type" : "VEC3", "max" : [6050, 2449.8994140625, 4000], "min" : [5850.40234375, 2250.1005859375, 3700], "name" : "POSITION"}, {"bufferView" : 1, "byteOffset" : 12, "componentType" : 5126, "count" : 381, "type" : "VEC3", "max" : [0.9959787130355835, 0.9989974498748779, 1.0000044107437134], "min" : [-1.0000044107437134, -0.9989974498748779, -1.0000044107437134], "name" : "NORMAL"}], "asset" : {"generator" : "Aspose.3D 21.12", "version" : "2.0"}, "buffers" : [{"uri" : "data:application/octet-stream;base64,", "byteLength" : 10616}], "bufferViews" : [{"buffer" : 0, "byteOffset" : 0, "byteLength" : 816, "target" : 34963}, {"buffer" : 0, "byteOffset" : 820, "byteLength" : 9792, "byteStride" : 24, "target" : 34962}], "meshes" : [{"primitives" : [{"attributes" : {"POSITION" : 1, "NORMAL" : 2}, "indices" : 0, "mode" : 4}], "name" : ""}], "nodes" : [{"mesh" : 0, "name" : ""}], "scene" : 0, "scenes" : [{"nodes" : [0]}]}