# Aspose.3D Wavefront OBJ Exporter
# Copyright 2004-2021 Aspose Pty Ltd.
# File created: 12/22/2021 14:57:02


#
# object obj_41364516
#

v 248.39295959472656248 2367.855712890625 4000
v 248.39295959472656248 2367.855712890625 3700
v 250 2350 4000
v 250 2350 3700
v 248.39295959472656248 2332.144287109375 4000
v 248.39295959472656248 2332.144287109375 3700
v 243.62348937988281248 2314.862548828125 4000
v 243.62348937988281248 2314.862548828125 3700
v 235.84487915039062496 2298.7099609375 4000
v 235.84487915039062496 2298.7099609375 3700
v 225.30714416503906248 2284.2060546875 4000
v 225.30714416503906248 2284.2060546875 3700
v 212.34898376464843752 2271.81689453125 4000
v 212.34898376464843752 2271.81689453125 3700
v 197.38687133789062496 2261.9404296875 4000
v 197.38687133789062496 2261.9404296875 3700
v 180.90170288085937504 2254.894287109375 4000
v 180.90170288085937504 2254.894287109375 3700
v 163.42332458496093752 2250.905029296875 4000
v 163.42332458496093752 2250.905029296875 3700
v 145.51351928710937504 2250.1005859375 4000
v 145.51351928710937504 2250.1005859375 3700
v 127.74790954589843744 2252.50732421875 4000
v 127.74790954589843744 2252.50732421875 3700
v 110.69749450683593752 2258.047119140625 4000
v 110.69749450683593752 2258.047119140625 3700
v 94.91030120849609376 2266.542724609375 4000
v 94.91030120849609376 2266.542724609375 3700
v 80.89373779296875008 2277.720458984375 4000
v 80.89373779296875008 2277.720458984375 3700
v 69.098297119140625 2291.221435546875 4000
v 69.098297119140625 2291.221435546875 3700
v 59.90311431884765632 2306.611572265625 4000
v 59.90311431884765632 2306.611572265625 3700
v 53.60371398925781248 2323.396240234375 4000
v 53.60371398925781248 2323.396240234375 3700
v 50.40256881713867184 2341.0361328125 4000
v 50.40256881713867184 2341.0361328125 3700
v 50.40256881713867184 2358.9638671875 4000
v 50.40256881713867184 2358.9638671875 3700
v 53.60371398925781248 2376.603759765625 4000
v 53.60371398925781248 2376.603759765625 3700
v 59.90311431884765632 2393.388427734375 4000
v 59.90311431884765632 2393.388427734375 3700
v 69.098297119140625 2408.778564453125 4000
v 69.098297119140625 2408.778564453125 3700
v 80.89373779296875008 2422.279541015625 4000
v 80.89373779296875008 2422.279541015625 3700
v 94.91030120849609376 2433.457275390625 4000
v 94.91030120849609376 2433.457275390625 3700
v 110.69749450683593752 2441.952880859375 4000
v 110.69749450683593752 2441.952880859375 3700
v 127.74790954589843744 2447.49267578125 4000
v 127.74790954589843744 2447.49267578125 3700
v 145.51351928710937504 2449.8994140625 4000
v 145.51351928710937504 2449.8994140625 3700
v 163.42332458496093752 2449.094970703125 4000
v 163.42332458496093752 2449.094970703125 3700
v 180.90170288085937504 2445.105712890625 4000
v 180.90170288085937504 2445.105712890625 3700
v 197.38687133789062496 2438.0595703125 4000
v 197.38687133789062496 2438.0595703125 3700
v 212.34898376464843752 2428.18310546875 4000
v 212.34898376464843752 2428.18310546875 3700
v 225.30714416503906248 2415.7939453125 4000
v 225.30714416503906248 2415.7939453125 3700
v 235.84487915039062496 2401.2900390625 4000
v 235.84487915039062496 2401.2900390625 3700
v 243.62348937988281248 2385.137451171875 4000
v 243.62348937988281248 2385.137451171875 3700
v 253.40481567382812496 2331.766845703125 4000
v 253.40481567382812496 2331.766845703125 3700
v 255 2350 4000
v 255 2350 3700
v 253.40481567382812496 2368.233154296875 4000
v 253.40481567382812496 2368.233154296875 3700
v 248.667724609375 2385.912109375 3700
v 248.667724609375 2314.087890625 4000
v 248.667724609375 2314.087890625 3700
v 240.93266296386718752 2297.5 4000
v 240.93266296386718752 2297.5 3700
v 230.43466186523437504 2282.50732421875 4000
v 230.43466186523437504 2282.50732421875 3700
v 217.49270629882812496 2269.5654296875 4000
v 217.49270629882812496 2269.5654296875 3700
v 202.5 2259.0673828125 4000
v 202.5 2259.0673828125 3700
v 185.912109375 2251.332275390625 4000
v 185.912109375 2251.332275390625 3700
v 168.233062744140625 2246.59521484375 4000
v 168.233062744140625 2246.59521484375 3700
v 150 2245 4000
v 150 2245 3700
v 131.76693725585937504 2246.59521484375 4000
v 131.76693725585937504 2246.59521484375 3700
v 114.08788299560546875 2251.332275390625 4000
v 114.08788299560546875 2251.332275390625 3700
v 97.5 2259.0673828125 4000
v 97.5 2259.0673828125 3700
v 82.50730133056640624 2269.5654296875 4000
v 82.50730133056640624 2269.5654296875 3700
v 69.56533050537109376 2282.50732421875 4000
v 69.56533050537109376 2282.50732421875 3700
v 59.06733322143554688 2297.5 4000
v 59.06733322143554688 2297.5 3700
v 51.332275390625 2314.087890625 4000
v 51.332275390625 2314.087890625 3700
v 46.59518432617187504 2331.766845703125 4000
v 46.59518432617187504 2331.766845703125 3700
v 45 2350 4000
v 45 2350 3700
v 46.59518432617187504 2368.233154296875 4000
v 46.59518432617187504 2368.233154296875 3700
v 51.332275390625 2385.912109375 4000
v 51.332275390625 2385.912109375 3700
v 59.06733322143554688 2402.5 4000
v 59.06733322143554688 2402.5 3700
v 69.56533050537109376 2417.49267578125 4000
v 69.56533050537109376 2417.49267578125 3700
v 82.50730133056640624 2430.4345703125 4000
v 82.50730133056640624 2430.4345703125 3700
v 97.5 2440.9326171875 4000
v 97.5 2440.9326171875 3700
v 114.08788299560546875 2448.667724609375 4000
v 114.08788299560546875 2448.667724609375 3700
v 131.76693725585937504 2453.40478515625 4000
v 131.76693725585937504 2453.40478515625 3700
v 150 2455 4000
v 150 2455 3700
v 168.233062744140625 2453.40478515625 4000
v 168.233062744140625 2453.40478515625 3700
v 185.912109375 2448.667724609375 4000
v 185.912109375 2448.667724609375 3700
v 202.5 2440.9326171875 4000
v 202.5 2440.9326171875 3700
v 217.49270629882812496 2430.4345703125 4000
v 217.49270629882812496 2430.4345703125 3700
v 230.43466186523437504 2417.49267578125 4000
v 230.43466186523437504 2417.49267578125 3700
v 240.93266296386718752 2402.5 4000
v 240.93266296386718752 2402.5 3700
v 248.667724609375 2385.912109375 4000
# 142 vertices

vn -0.99597430229187008 -0.08963930606842041 0
vn -0.99597430229187008 0.08963930606842041 0
vn -0.96396285295486448 0.26603683829307556 0
vn -0.90096884965896608 0.43388372659683224 0
vn -0.80901700258255008 0.58778524398803712 0
vn -0.69106262922286984 0.72279489040374752 0
vn -0.55089700222015384 0.8345732688903808 0
vn -0.39302504062652584 0.91952776908874512 0
vn -0.22252093255519868 0.97492790222167968 0
vn -0.04486482962965965 0.99899303913116448 0
vn 0.1342332661151886 0.99094974994659424 0
vn 0.30901700258255004 0.95105654001235968 0
vn 0.47386866807937624 0.88059550523757936 0
vn 0.62348979711532592 0.78183150291442864 0
vn 0.75307148694992064 0.6579387187957764 0
vn 0.8584488034248352 0.51289927959442136 0
vn 0.9362348914146424 0.35137483477592468 0
vn 0.98392957448959344 0.178556889295578 0
vn 1 0 0
vn 0.98392957448959344 -0.178556889295578 0
vn 0.9362348914146424 -0.35137483477592468 0
vn 0.8584488034248352 -0.51289927959442136 0
vn 0.75307148694992064 -0.6579387187957764 0
vn 0.62348979711532592 -0.78183150291442864 0
vn 0.47386866807937624 -0.88059550523757936 0
vn 0.30901700258255004 -0.95105654001235968 0
vn 0.1342332661151886 -0.99094974994659424 0
vn -0.04486482962965965 -0.99899303913116448 0
vn -0.22252093255519868 -0.97492790222167968 0
vn -0.39302504062652584 -0.91952776908874512 0
vn -0.55089700222015384 -0.8345732688903808 0
vn -0.69106262922286984 -0.72279489040374752 0
vn -0.80901700258255008 -0.58778524398803712 0
vn -0.90096884965896608 -0.43388372659683224 0
vn -0.96396285295486448 -0.26603683829307556 0
vn 0.99619472026824944 -0.08715574443340302 0
vn 0.99619472026824944 0.08715574443340302 0
vn 0.96592581272125248 0.25881904363632204 0
vn 0.96592581272125248 -0.25881904363632204 0
vn 0.90630781650543216 -0.42261826992034912 0
vn 0.81915205717086784 -0.5735764503479004 0
vn 0.7071067690849304 -0.7071067690849304 0
vn 0.5735764503479004 -0.81915205717086784 0
vn 0.42261826992034912 -0.90630781650543216 0
vn 0.25881904363632204 -0.96592581272125248 0
vn 0.08715574443340302 -0.99619472026824944 0
vn -0.08715574443340302 -0.99619472026824944 0
vn -0.25881904363632204 -0.96592581272125248 0
vn -0.42261826992034912 -0.90630781650543216 0
vn -0.5735764503479004 -0.81915205717086784 0
vn -0.7071067690849304 -0.7071067690849304 0
vn -0.81915205717086784 -0.5735764503479004 0
vn -0.90630781650543216 -0.42261826992034912 0
vn -0.96592581272125248 -0.25881904363632204 0
vn -0.99619472026824944 -0.08715574443340302 0
vn -0.99619472026824944 0.08715574443340302 0
vn -0.96592581272125248 0.25881904363632204 0
vn -0.90630781650543216 0.42261826992034912 0
vn -0.81915205717086784 0.5735764503479004 0
vn -0.7071067690849304 0.7071067690849304 0
vn -0.5735764503479004 0.81915205717086784 0
vn -0.42261826992034912 0.90630781650543216 0
vn -0.25881904363632204 0.96592581272125248 0
vn -0.08715574443340302 0.99619472026824944 0
vn 0.08715574443340302 0.99619472026824944 0
vn 0.25881904363632204 0.96592581272125248 0
vn 0.42261826992034912 0.90630781650543216 0
vn 0.5735764503479004 0.81915205717086784 0
vn 0.7071067690849304 0.7071067690849304 0
vn 0.81915205717086784 0.5735764503479004 0
vn 0.90630781650543216 0.42261826992034912 0
vn -9.202830012801366E-14 -1.7185227850144424E-14 1
vn 0 0 1
vn -8.893994346342513E-14 2.3831385473414672E-14 1
vn -8.64863736182997E-14 2.3868722685729642E-14 1
vn -8.412748172788656E-14 3.922929079562369E-14 1
vn -8.019488393663787E-14 3.861982009688812E-14 1
vn -7.662012707241803E-14 5.3649992841310265E-14 1
vn -7.148104265615463E-14 5.193401589852209E-14 1
vn -6.661650533501887E-14 6.661650533501887E-14 1
vn -6.064411668151026E-14 6.342877476505845E-14 1
vn -5.440069103740744E-14 7.769224039068032E-14 1
vn -4.804151664699642E-14 7.277978810978428E-14 1
vn -4.0333981001037383E-14 8.649649735608528E-14 1
vn -3.4078019269315196E-14 7.972949015409847E-14 1
vn -2.4843804991752164E-14 9.271834060069206E-14 1
vn -1.9193834347418226E-14 8.409368172515932E-14 1
vn -8.410126605816904E-15 9.612818353821329E-14 1
vn -3.851759507861579E-15 8.576608390500895E-14 1
vn 8.450242933231815E-15 9.658671974201172E-14 1
vn 1.1476195292464339E-14 8.472067584150769E-14 1
vn 2.5200831073085746E-14 9.40507776368317E-14 1
vn 2.6322343352831908E-14 8.101184382613286E-14 1
vn 4.1303630437736216E-14 8.857592258401312E-14 1
vn 4.023666369166144E-14 7.47722535472152E-14 1
vn 5.623748198352839E-14 8.031544721821826E-14 1
vn 5.279958870292589E-14 6.620858782014835E-14 1
vn 6.951607529632337E-14 6.951607529632337E-14 1
vn 6.363385838224767E-14 5.55952243334705E-14 1
vn 8.070483842846643E-14 5.651013850111776E-14 1
vn 7.241518447170456E-14 4.3266056698725713E-14 1
vn 8.943618279777174E-14 4.1704775077160486E-14 1
vn 7.888138655719884E-14 2.960467903267115E-14 1
vn 9.542238147645238E-14 2.5568350198569914E-14 1
vn 8.283973415004406E-14 1.5033194957977947E-14 1
vn 9.846579118472781E-14 8.614640169832613E-15 1
vn 8.417240157914535E-14 0 1
vn 9.846579118472781E-14 -8.614640169832613E-15 1
vn 8.283973415004406E-14 -1.5033194957977947E-14 1
vn 9.542238147645238E-14 -2.5568350198569914E-14 1
vn 7.888138655719884E-14 -2.960467903267115E-14 1
vn 8.943618279777174E-14 -4.1704775077160486E-14 1
vn 7.241518447170456E-14 -4.3266056698725713E-14 1
vn 8.070483842846643E-14 -5.651013850111776E-14 1
vn 6.363385838224767E-14 -5.55952243334705E-14 1
vn 6.951607529632337E-14 -6.951607529632337E-14 1
vn 5.279958870292589E-14 -6.620858782014835E-14 1
vn 5.623748198352839E-14 -8.031544721821826E-14 1
vn 4.023666369166144E-14 -7.47722535472152E-14 1
vn 4.1303630437736216E-14 -8.857592258401312E-14 1
vn 2.6322343352831908E-14 -8.101184382613286E-14 1
vn 2.5200831073085746E-14 -9.40507776368317E-14 1
vn 1.1476195292464339E-14 -8.472067584150769E-14 1
vn 8.450242933231815E-15 -9.658671974201172E-14 1
vn -3.851759507861579E-15 -8.576608390500895E-14 1
vn -8.410126605816904E-15 -9.612818353821329E-14 1
vn -1.9193834347418226E-14 -8.409368172515932E-14 1
vn -2.4843804991752164E-14 -9.271834060069206E-14 1
vn -3.4078019269315196E-14 -7.972949015409847E-14 1
vn -4.0333981001037383E-14 -8.649649735608528E-14 1
vn -4.804151664699642E-14 -7.277978810978428E-14 1
vn -5.440069103740744E-14 -7.769224039068032E-14 1
vn -6.064411668151026E-14 -6.342877476505845E-14 1
vn -6.661650533501887E-14 -6.661650533501887E-14 1
vn -7.148104265615463E-14 -5.193401589852209E-14 1
vn -7.662012707241803E-14 -5.3649992841310265E-14 1
vn -8.019488393663787E-14 -3.861982009688812E-14 1
vn -8.412748172788656E-14 -3.922929079562369E-14 1
vn -8.64863736182997E-14 -2.3868722685729642E-14 1
vn -8.893994346342513E-14 -2.3831385473414672E-14 1
vn -9.202830012801366E-14 1.7185227850144424E-14 1
vn 9.202830012801366E-14 -1.7185227850144424E-14 -1
vn 0 0 -1
vn 8.893994346342513E-14 2.3831385473414672E-14 -1
vn 8.64863736182997E-14 2.3868722685729642E-14 -1
vn 8.412748172788656E-14 3.922929079562369E-14 -1
vn 8.019488393663787E-14 3.861982009688812E-14 -1
vn 7.662012707241803E-14 5.3649992841310265E-14 -1
vn 7.148104265615463E-14 5.193401589852209E-14 -1
vn 6.661650533501887E-14 6.661650533501887E-14 -1
vn 6.064411668151026E-14 6.342877476505845E-14 -1
vn 5.440069103740744E-14 7.769224039068032E-14 -1
vn 4.804151664699642E-14 7.277978810978428E-14 -1
vn 4.0333981001037383E-14 8.649649735608528E-14 -1
vn 3.4078019269315196E-14 7.972949015409847E-14 -1
vn 2.4843804991752164E-14 9.271834060069206E-14 -1
vn 1.9193834347418226E-14 8.409368172515932E-14 -1
vn 8.410126605816904E-15 9.612818353821329E-14 -1
vn 3.851759507861579E-15 8.576608390500895E-14 -1
vn -8.450242933231815E-15 9.658671974201172E-14 -1
vn -1.1476195292464339E-14 8.472067584150769E-14 -1
vn -2.5200831073085746E-14 9.40507776368317E-14 -1
vn -2.6322343352831908E-14 8.101184382613286E-14 -1
vn -4.1303630437736216E-14 8.857592258401312E-14 -1
vn -4.023666369166144E-14 7.47722535472152E-14 -1
vn -5.623748198352839E-14 8.031544721821826E-14 -1
vn -5.279958870292589E-14 6.620858782014835E-14 -1
vn -6.951607529632337E-14 6.951607529632337E-14 -1
vn -6.363385838224767E-14 5.55952243334705E-14 -1
vn -8.070483842846643E-14 5.651013850111776E-14 -1
vn -7.241518447170456E-14 4.3266056698725713E-14 -1
vn -8.943618279777174E-14 4.1704775077160486E-14 -1
vn -7.888138655719884E-14 2.960467903267115E-14 -1
vn -9.542238147645238E-14 2.5568350198569914E-14 -1
vn -8.283973415004406E-14 1.5033194957977947E-14 -1
vn -9.846579118472781E-14 8.614640169832613E-15 -1
vn -8.417240157914535E-14 0 -1
vn -9.846579118472781E-14 -8.614640169832613E-15 -1
vn -8.283973415004406E-14 -1.5033194957977947E-14 -1
vn -9.542238147645238E-14 -2.5568350198569914E-14 -1
vn -7.888138655719884E-14 -2.960467903267115E-14 -1
vn -8.943618279777174E-14 -4.1704775077160486E-14 -1
vn -7.241518447170456E-14 -4.3266056698725713E-14 -1
vn -8.070483842846643E-14 -5.651013850111776E-14 -1
vn -6.363385838224767E-14 -5.55952243334705E-14 -1
vn -6.951607529632337E-14 -6.951607529632337E-14 -1
vn -5.279958870292589E-14 -6.620858782014835E-14 -1
vn -5.623748198352839E-14 -8.031544721821826E-14 -1
vn -4.023666369166144E-14 -7.47722535472152E-14 -1
vn -4.1303630437736216E-14 -8.857592258401312E-14 -1
vn -2.6322343352831908E-14 -8.101184382613286E-14 -1
vn -2.5200831073085746E-14 -9.40507776368317E-14 -1
vn -1.1476195292464339E-14 -8.472067584150769E-14 -1
vn -8.450242933231815E-15 -9.658671974201172E-14 -1
vn 3.851759507861579E-15 -8.576608390500895E-14 -1
vn 8.410126605816904E-15 -9.612818353821329E-14 -1
vn 1.9193834347418226E-14 -8.409368172515932E-14 -1
vn 2.4843804991752164E-14 -9.271834060069206E-14 -1
vn 3.4078019269315196E-14 -7.972949015409847E-14 -1
vn 4.0333981001037383E-14 -8.649649735608528E-14 -1
vn 4.804151664699642E-14 -7.277978810978428E-14 -1
vn 5.440069103740744E-14 -7.769224039068032E-14 -1
vn 6.064411668151026E-14 -6.342877476505845E-14 -1
vn 6.661650533501887E-14 -6.661650533501887E-14 -1
vn 7.148104265615463E-14 -5.193401589852209E-14 -1
vn 7.662012707241803E-14 -5.3649992841310265E-14 -1
vn 8.019488393663787E-14 -3.861982009688812E-14 -1
vn 8.412748172788656E-14 -3.922929079562369E-14 -1
vn 8.64863736182997E-14 -2.3868722685729642E-14 -1
vn 8.893994346342513E-14 -2.3831385473414672E-14 -1
vn 9.202830012801366E-14 1.7185227850144424E-14 -1
# 211 vertex normals

g obj_41364516
s 1
f 1//1 2//1 3//1
f 3//1 2//1 4//1
f 3//2 4//2 5//2
f 5//2 4//2 6//2
f 5//3 6//3 7//3
f 7//3 6//3 8//3
f 7//4 8//4 9//4
f 9//4 8//4 10//4
f 9//5 10//5 11//5
f 11//5 10//5 12//5
f 11//6 12//6 13//6
f 13//6 12//6 14//6
f 13//7 14//7 15//7
f 15//7 14//7 16//7
f 15//8 16//8 17//8
f 17//8 16//8 18//8
f 17//9 18//9 19//9
f 19//9 18//9 20//9
f 19//10 20//10 21//10
f 21//10 20//10 22//10
f 21//11 22//11 23//11
f 23//11 22//11 24//11
f 23//12 24//12 25//12
f 25//12 24//12 26//12
f 25//13 26//13 27//13
f 27//13 26//13 28//13
f 27//14 28//14 29//14
f 29//14 28//14 30//14
f 29//15 30//15 31//15
f 31//15 30//15 32//15
f 31//16 32//16 33//16
f 33//16 32//16 34//16
f 33//17 34//17 35//17
f 35//17 34//17 36//17
f 35//18 36//18 37//18
f 37//18 36//18 38//18
f 37//19 38//19 39//19
f 39//19 38//19 40//19
f 39//20 40//20 41//20
f 41//20 40//20 42//20
f 41//21 42//21 43//21
f 43//21 42//21 44//21
f 43//22 44//22 45//22
f 45//22 44//22 46//22
f 45//23 46//23 47//23
f 47//23 46//23 48//23
f 47//24 48//24 49//24
f 49//24 48//24 50//24
f 49//25 50//25 51//25
f 51//25 50//25 52//25
f 51//26 52//26 53//26
f 53//26 52//26 54//26
f 53//27 54//27 55//27
f 55//27 54//27 56//27
f 55//28 56//28 57//28
f 57//28 56//28 58//28
f 57//29 58//29 59//29
f 59//29 58//29 60//29
f 59//30 60//30 61//30
f 61//30 60//30 62//30
f 61//31 62//31 63//31
f 63//31 62//31 64//31
f 63//32 64//32 65//32
f 65//32 64//32 66//32
f 65//33 66//33 67//33
f 67//33 66//33 68//33
f 67//34 68//34 69//34
f 69//34 68//34 70//34
f 69//35 70//35 1//35
f 1//35 70//35 2//35
f 71//36 72//36 73//36
f 73//36 72//36 74//36
f 73//37 74//37 75//37
f 75//37 74//37 76//37
f 75//38 76//38 77//38
f 71//39 78//39 72//39
f 72//39 78//39 79//39
f 79//40 78//40 80//40
f 79//40 80//40 81//40
f 81//41 80//41 82//41
f 81//41 82//41 83//41
f 83//42 82//42 84//42
f 83//42 84//42 85//42
f 85//43 84//43 86//43
f 85//43 86//43 87//43
f 87//44 86//44 88//44
f 87//44 88//44 89//44
f 89//45 88//45 90//45
f 89//45 90//45 91//45
f 91//46 90//46 92//46
f 91//46 92//46 93//46
f 93//47 92//47 94//47
f 93//47 94//47 95//47
f 95//48 94//48 96//48
f 95//48 96//48 97//48
f 97//49 96//49 98//49
f 97//49 98//49 99//49
f 99//50 98//50 100//50
f 99//50 100//50 101//50
f 101//51 100//51 102//51
f 101//51 102//51 103//51
f 103//52 102//52 104//52
f 103//52 104//52 105//52
f 105//53 104//53 106//53
f 105//53 106//53 107//53
f 107//54 106//54 108//54
f 107//54 108//54 109//54
f 109//55 108//55 110//55
f 109//55 110//55 111//55
f 111//56 110//56 112//56
f 111//56 112//56 113//56
f 113//57 112//57 114//57
f 113//57 114//57 115//57
f 115//58 114//58 116//58
f 115//58 116//58 117//58
f 117//59 116//59 118//59
f 117//59 118//59 119//59
f 119//60 118//60 120//60
f 119//60 120//60 121//60
f 121//61 120//61 122//61
f 121//61 122//61 123//61
f 123//62 122//62 124//62
f 123//62 124//62 125//62
f 125//63 124//63 126//63
f 125//63 126//63 127//63
f 127//64 126//64 128//64
f 127//64 128//64 129//64
f 129//65 128//65 130//65
f 129//65 130//65 131//65
f 131//66 130//66 132//66
f 131//66 132//66 133//66
f 133//67 132//67 134//67
f 133//67 134//67 135//67
f 135//68 134//68 136//68
f 135//68 136//68 137//68
f 137//69 136//69 138//69
f 137//69 138//69 139//69
f 139//70 138//70 140//70
f 139//70 140//70 141//70
f 141//71 140//71 142//71
f 141//71 142//71 77//71
f 77//38 142//38 75//38
f 5//72 71//72 3//72
f 3//73 71//73 73//73
f 3//73 73//73 75//73
f 71//74 5//74 78//74
f 78//75 5//75 7//75
f 78//76 7//76 80//76
f 80//77 7//77 9//77
f 80//78 9//78 82//78
f 82//79 9//79 11//79
f 82//80 11//80 84//80
f 84//81 11//81 13//81
f 84//82 13//82 86//82
f 86//83 13//83 15//83
f 86//84 15//84 88//84
f 88//85 15//85 17//85
f 88//86 17//86 90//86
f 90//87 17//87 19//87
f 90//88 19//88 92//88
f 92//89 19//89 21//89
f 92//90 21//90 94//90
f 94//91 21//91 23//91
f 94//92 23//92 96//92
f 96//93 23//93 25//93
f 96//94 25//94 98//94
f 98//95 25//95 27//95
f 98//96 27//96 100//96
f 100//97 27//97 29//97
f 100//98 29//98 102//98
f 102//99 29//99 31//99
f 102//100 31//100 104//100
f 104//101 31//101 33//101
f 104//102 33//102 106//102
f 106//103 33//103 35//103
f 106//104 35//104 108//104
f 108//105 35//105 37//105
f 108//106 37//106 110//106
f 110//107 37//107 39//107
f 110//108 39//108 112//108
f 112//109 39//109 41//109
f 112//110 41//110 114//110
f 114//111 41//111 43//111
f 114//112 43//112 116//112
f 116//113 43//113 45//113
f 116//114 45//114 118//114
f 118//115 45//115 47//115
f 118//116 47//116 120//116
f 120//117 47//117 49//117
f 120//118 49//118 122//118
f 122//119 49//119 51//119
f 122//120 51//120 124//120
f 124//121 51//121 53//121
f 124//122 53//122 126//122
f 126//123 53//123 55//123
f 126//124 55//124 128//124
f 128//125 55//125 57//125
f 128//126 57//126 130//126
f 130//127 57//127 59//127
f 130//128 59//128 132//128
f 132//129 59//129 61//129
f 132//130 61//130 134//130
f 134//131 61//131 63//131
f 134//132 63//132 136//132
f 136//133 63//133 65//133
f 136//134 65//134 138//134
f 138//135 65//135 67//135
f 138//136 67//136 140//136
f 140//137 67//137 69//137
f 140//138 69//138 142//138
f 142//139 69//139 1//139
f 142//140 1//140 75//140
f 75//141 1//141 3//141
f 2//142 76//142 4//142
f 4//143 76//143 74//143
f 4//143 74//143 72//143
f 76//144 2//144 77//144
f 77//145 2//145 70//145
f 77//146 70//146 141//146
f 141//147 70//147 68//147
f 141//148 68//148 139//148
f 139//149 68//149 66//149
f 139//150 66//150 137//150
f 137//151 66//151 64//151
f 137//152 64//152 135//152
f 135//153 64//153 62//153
f 135//154 62//154 133//154
f 133//155 62//155 60//155
f 133//156 60//156 131//156
f 131//157 60//157 58//157
f 131//158 58//158 129//158
f 129//159 58//159 56//159
f 129//160 56//160 127//160
f 127//161 56//161 54//161
f 127//162 54//162 125//162
f 125//163 54//163 52//163
f 125//164 52//164 123//164
f 123//165 52//165 50//165
f 123//166 50//166 121//166
f 121//167 50//167 48//167
f 121//168 48//168 119//168
f 119//169 48//169 46//169
f 119//170 46//170 117//170
f 117//171 46//171 44//171
f 117//172 44//172 115//172
f 115//173 44//173 42//173
f 115//174 42//174 113//174
f 113//175 42//175 40//175
f 113//176 40//176 111//176
f 111//177 40//177 38//177
f 111//178 38//178 109//178
f 109//179 38//179 36//179
f 109//180 36//180 107//180
f 107//181 36//181 34//181
f 107//182 34//182 105//182
f 105//183 34//183 32//183
f 105//184 32//184 103//184
f 103//185 32//185 30//185
f 103//186 30//186 101//186
f 101//187 30//187 28//187
f 101//188 28//188 99//188
f 99//189 28//189 26//189
f 99//190 26//190 97//190
f 97//191 26//191 24//191
f 97//192 24//192 95//192
f 95//193 24//193 22//193
f 95//194 22//194 93//194
f 93//195 22//195 20//195
f 93//196 20//196 91//196
f 91//197 20//197 18//197
f 91//198 18//198 89//198
f 89//199 18//199 16//199
f 89//200 16//200 87//200
f 87//201 16//201 14//201
f 87//202 14//202 85//202
f 85//203 14//203 12//203
f 85//204 12//204 83//204
f 83//205 12//205 10//205
f 83//206 10//206 81//206
f 81//207 10//207 8//207
f 81//208 8//208 79//208
f 79//209 8//209 6//209
f 79//210 6//210 72//210
f 72//211 6//211 4//211
#284 polygons

