# Aspose.3D Wavefront OBJ Exporter
# Copyright 2004-2021 Aspose Pty Ltd.
# File created: 12/22/2021 14:53:48


#
# object obj_64318944
#

v 2165 2470.74072265625 3527.352294921875
v 280 2470.74072265625 3527.352294921875
v 2165 2475 3495
v 280 2475 3495
v 2165 2470.74072265625 3462.647705078125
v 280 2470.74072265625 3462.647705078125
v 2165 2458.253173828125 3432.5
v 280 2458.253173828125 3432.5
v 2165 2438.388427734375 3406.611572265625
v 280 2438.388427734375 3406.611572265625
v 2165 2412.5 3386.746826171875
v 280 2412.5 3386.746826171875
v 2165 2382.352294921875 3374.25927734375
v 280 2382.352294921875 3374.25927734375
v 2165 2350 3370
v 280 2350 3370
v 2165 2317.647705078125 3374.25927734375
v 280 2317.647705078125 3374.25927734375
v 2165 2287.5 3386.746826171875
v 280 2287.5 3386.746826171875
v 2165 2261.611572265625 3406.611572265625
v 280 2261.611572265625 3406.611572265625
v 2165 2241.746826171875 3432.5
v 280 2241.746826171875 3432.5
v 2165 2229.25927734375 3462.647705078125
v 280 2229.25927734375 3462.647705078125
v 2165 2225 3495
v 280 2225 3495
v 2165 2229.25927734375 3527.352294921875
v 280 2229.25927734375 3527.352294921875
v 2165 2241.746826171875 3557.5
v 280 2241.746826171875 3557.5
v 2165 2261.611572265625 3583.388427734375
v 280 2261.611572265625 3583.388427734375
v 2165 2287.5 3603.253173828125
v 280 2287.5 3603.253173828125
v 2165 2317.647705078125 3615.74072265625
v 280 2317.647705078125 3615.74072265625
v 2165 2350 3620
v 280 2350 3620
v 2165 2382.352294921875 3615.74072265625
v 280 2382.352294921875 3615.74072265625
v 2165 2412.5 3603.253173828125
v 280 2412.5 3603.253173828125
v 2165 2438.388427734375 3583.388427734375
v 280 2438.388427734375 3583.388427734375
v 2165 2458.253173828125 3557.5
v 280 2458.253173828125 3557.5
v 280 2224.4296875 3461.353515625
v 2165 2224.4296875 3461.353515625
v 280 2220 3495
v 2165 2220 3495
v 280 2224.4296875 3528.646484375
v 2165 2224.4296875 3528.646484375
v 280 2237.416748046875 3560
v 2165 2237.416748046875 3560
v 280 2258.076171875 3586.923828125
v 2165 2258.076171875 3586.923828125
v 280 2285 3607.583251953125
v 2165 2285 3607.583251953125
v 280 2316.353515625 3620.5703125
v 2165 2316.353515625 3620.5703125
v 280 2350 3625
v 2165 2350 3625
v 280 2383.646484375 3620.5703125
v 2165 2383.646484375 3620.5703125
v 280 2415 3607.583251953125
v 2165 2415 3607.583251953125
v 280 2441.923828125 3586.923828125
v 2165 2441.923828125 3586.923828125
v 280 2462.583251953125 3560
v 2165 2462.583251953125 3560
v 280 2475.5703125 3528.646484375
v 2165 2475.5703125 3528.646484375
v 280 2480 3495
v 2165 2480 3495
v 280 2475.5703125 3461.353515625
v 2165 2475.5703125 3461.353515625
v 280 2462.583251953125 3430
v 2165 2462.583251953125 3430
v 280 2441.923828125 3403.076171875
v 2165 2441.923828125 3403.076171875
v 280 2415 3382.416748046875
v 2165 2415 3382.416748046875
v 280 2383.646484375 3369.4296875
v 2165 2383.646484375 3369.4296875
v 280 2350 3365
v 2165 2350 3365
v 280 2316.353515625 3369.4296875
v 2165 2316.353515625 3369.4296875
v 280 2285 3382.416748046875
v 2165 2285 3382.416748046875
v 280 2258.076171875 3403.076171875
v 2165 2258.076171875 3403.076171875
v 280 2237.416748046875 3430
v 2165 2237.416748046875 3430
# 96 vertices

vn 0 -0.99144488573074336 -0.13052618503570556
vn 0 -0.99144488573074336 0.13052618503570556
vn 0 -0.92387950420379632 0.38268342614173888
vn 0 -0.79335331916809088 0.60876142978668216
vn 0 -0.60876142978668216 0.79335331916809088
vn 0 -0.38268342614173888 0.92387950420379632
vn 0 -0.13052618503570556 0.99144488573074336
vn 0 0.13052618503570556 0.99144488573074336
vn 0 0.38268342614173888 0.92387950420379632
vn 0 0.60876142978668216 0.79335331916809088
vn 0 0.79335331916809088 0.60876142978668216
vn 0 0.92387950420379632 0.38268342614173888
vn 0 0.99144488573074336 0.13052618503570556
vn 0 0.99144488573074336 -0.13052618503570556
vn 0 0.92387950420379632 -0.38268342614173888
vn 0 0.79335331916809088 -0.60876142978668216
vn 0 0.60876142978668216 -0.79335331916809088
vn 0 0.38268342614173888 -0.92387950420379632
vn 0 0.13052618503570556 -0.99144488573074336
vn 0 -0.13052618503570556 -0.99144488573074336
vn 0 -0.38268342614173888 -0.92387950420379632
vn 0 -0.60876142978668216 -0.79335331916809088
vn 0 -0.79335331916809088 -0.60876142978668216
vn 0 -0.92387950420379632 -0.38268342614173888
vn -1 3.7252903539730653E-10 -1.0661804078493375E-10
vn -1 3.7252903539730653E-10 1.0661804078493375E-10
vn -1 0 0
vn 1 -3.7252903539730653E-10 -1.0661804078493375E-10
vn 1 -3.7252903539730653E-10 1.0661804078493375E-10
vn 1 0 0
# 30 vertex normals

g obj_64318944
s 1
f 1//1 2//1 3//1
f 3//1 2//1 4//1
f 3//2 4//2 5//2
f 5//2 4//2 6//2
f 5//3 6//3 7//3
f 7//3 6//3 8//3
f 7//4 8//4 9//4
f 9//4 8//4 10//4
f 9//5 10//5 11//5
f 11//5 10//5 12//5
f 11//6 12//6 13//6
f 13//6 12//6 14//6
f 13//7 14//7 15//7
f 15//7 14//7 16//7
f 15//8 16//8 17//8
f 17//8 16//8 18//8
f 17//9 18//9 19//9
f 19//9 18//9 20//9
f 19//10 20//10 21//10
f 21//10 20//10 22//10
f 21//11 22//11 23//11
f 23//11 22//11 24//11
f 23//12 24//12 25//12
f 25//12 24//12 26//12
f 25//13 26//13 27//13
f 27//13 26//13 28//13
f 27//14 28//14 29//14
f 29//14 28//14 30//14
f 29//15 30//15 31//15
f 31//15 30//15 32//15
f 31//16 32//16 33//16
f 33//16 32//16 34//16
f 33//17 34//17 35//17
f 35//17 34//17 36//17
f 35//18 36//18 37//18
f 37//18 36//18 38//18
f 37//19 38//19 39//19
f 39//19 38//19 40//19
f 39//20 40//20 41//20
f 41//20 40//20 42//20
f 41//21 42//21 43//21
f 43//21 42//21 44//21
f 43//22 44//22 45//22
f 45//22 44//22 46//22
f 45//23 46//23 47//23
f 47//23 46//23 48//23
f 47//24 48//24 1//24
f 1//24 48//24 2//24
f 49//1 50//1 51//1
f 51//1 50//1 52//1
f 51//2 52//2 53//2
f 53//2 52//2 54//2
f 53//3 54//3 55//3
f 55//3 54//3 56//3
f 55//4 56//4 57//4
f 57//4 56//4 58//4
f 57//5 58//5 59//5
f 59//5 58//5 60//5
f 59//6 60//6 61//6
f 61//6 60//6 62//6
f 61//7 62//7 63//7
f 63//7 62//7 64//7
f 63//8 64//8 65//8
f 65//8 64//8 66//8
f 65//9 66//9 67//9
f 67//9 66//9 68//9
f 67//10 68//10 69//10
f 69//10 68//10 70//10
f 69//11 70//11 71//11
f 71//11 70//11 72//11
f 71//12 72//12 73//12
f 73//12 72//12 74//12
f 73//13 74//13 75//13
f 75//13 74//13 76//13
f 75//14 76//14 77//14
f 77//14 76//14 78//14
f 77//15 78//15 79//15
f 79//15 78//15 80//15
f 79//16 80//16 81//16
f 81//16 80//16 82//16
f 81//17 82//17 83//17
f 83//17 82//17 84//17
f 83//18 84//18 85//18
f 85//18 84//18 86//18
f 85//19 86//19 87//19
f 87//19 86//19 88//19
f 87//20 88//20 89//20
f 89//20 88//20 90//20
f 89//21 90//21 91//21
f 91//21 90//21 92//21
f 91//22 92//22 93//22
f 93//22 92//22 94//22
f 93//23 94//23 95//23
f 95//23 94//23 96//23
f 95//24 96//24 49//24
f 49//24 96//24 50//24
f 6//25 4//25 75//25
f 75//26 4//26 2//26
f 75//27 2//27 73//27
f 73//27 2//27 71//27
f 71//27 2//27 48//27
f 71//27 48//27 46//27
f 71//27 46//27 69//27
f 69//27 46//27 44//27
f 69//27 44//27 67//27
f 67//27 44//27 42//27
f 67//27 42//27 65//27
f 65//27 42//27 40//27
f 65//27 40//27 63//27
f 63//27 40//27 38//27
f 63//27 38//27 61//27
f 61//27 38//27 36//27
f 61//27 36//27 59//27
f 59//27 36//27 34//27
f 59//27 34//27 57//27
f 57//27 34//27 32//27
f 57//27 32//27 55//27
f 55//27 32//27 30//27
f 55//27 30//27 53//27
f 53//27 30//27 51//27
f 51//27 30//27 28//27
f 51//27 28//27 26//27
f 24//27 95//27 26//27
f 26//27 95//27 49//27
f 26//27 49//27 51//27
f 95//27 24//27 93//27
f 93//27 24//27 22//27
f 93//27 22//27 91//27
f 91//27 22//27 20//27
f 91//27 20//27 89//27
f 89//27 20//27 18//27
f 89//27 18//27 87//27
f 87//27 18//27 16//27
f 87//27 16//27 85//27
f 85//27 16//27 14//27
f 85//27 14//27 83//27
f 83//27 14//27 12//27
f 83//27 12//27 81//27
f 81//27 12//27 10//27
f 81//27 10//27 79//27
f 79//27 10//27 8//27
f 79//27 8//27 6//27
f 75//27 77//27 6//27
f 6//27 77//27 79//27
f 1//28 3//28 76//28
f 76//29 3//29 5//29
f 76//30 5//30 78//30
f 78//30 5//30 80//30
f 80//30 5//30 7//30
f 80//30 7//30 9//30
f 80//30 9//30 82//30
f 82//30 9//30 11//30
f 82//30 11//30 84//30
f 84//30 11//30 13//30
f 84//30 13//30 86//30
f 86//30 13//30 15//30
f 86//30 15//30 88//30
f 88//30 15//30 17//30
f 88//30 17//30 90//30
f 90//30 17//30 19//30
f 90//30 19//30 92//30
f 92//30 19//30 21//30
f 92//30 21//30 94//30
f 94//30 21//30 23//30
f 94//30 23//30 96//30
f 96//30 23//30 25//30
f 96//30 25//30 50//30
f 50//30 25//30 52//30
f 52//30 25//30 27//30
f 52//30 27//30 29//30
f 31//30 56//30 29//30
f 29//30 56//30 54//30
f 29//30 54//30 52//30
f 56//30 31//30 58//30
f 58//30 31//30 33//30
f 58//30 33//30 60//30
f 60//30 33//30 35//30
f 60//30 35//30 62//30
f 62//30 35//30 37//30
f 62//30 37//30 64//30
f 64//30 37//30 39//30
f 64//30 39//30 66//30
f 66//30 39//30 41//30
f 66//30 41//30 68//30
f 68//30 41//30 43//30
f 68//30 43//30 70//30
f 70//30 43//30 45//30
f 70//30 45//30 72//30
f 72//30 45//30 47//30
f 72//30 47//30 1//30
f 76//30 74//30 1//30
f 1//30 74//30 72//30
#192 polygons

