{"accessors" : [{"bufferView" : 0, "byteOffset" : 0, "componentType" : 5123, "count" : 1596, "type" : "SCALAR", "max" : [1539], "min" : [0]}, {"bufferView" : 1, "byteOffset" : 0, "componentType" : 5126, "count" : 1540, "type" : "VEC3", "max" : [3180, 3675, 3605], "min" : [2920, 2920, 3345], "name" : "POSITION"}, {"bufferView" : 1, "byteOffset" : 12, "componentType" : 5126, "count" : 1540, "type" : "VEC3", "max" : [0.9990699887275696, 1.0000044107437134, 0.9987375140190125], "min" : [-0.9990699887275696, -1.0000044107437134, -0.9987375140190125], "name" : "NORMAL"}], "asset" : {"generator" : "Aspose.3D 21.12", "version" : "2.0"}, "buffers" : [{"uri" : "data:application/octet-stream;base64,", "byteLength" : 41504}], "bufferViews" : [{"buffer" : 0, "byteOffset" : 0, "byteLength" : 3192, "target" : 34963}, {"buffer" : 0, "byteOffset" : 3196, "byteLength" : 38304, "byteStride" : 24, "target" : 34962}], "meshes" : [{"primitives" : [{"attributes" : {"POSITION" : 1, "NORMAL" : 2}, "indices" : 0, "mode" : 4}], "name" : ""}], "nodes" : [{"mesh" : 0, "name" : ""}], "scene" : 0, "scenes" : [{"nodes" : [0]}]}