{"accessors" : [{"bufferView" : 0, "byteOffset" : 0, "componentType" : 5123, "count" : 852, "type" : "SCALAR", "max" : [751], "min" : [0]}, {"bufferView" : 1, "byteOffset" : 0, "componentType" : 5126, "count" : 752, "type" : "VEC3", "max" : [3155, 2455, 3960], "min" : [2945, 2245, 3660], "name" : "POSITION"}, {"bufferView" : 1, "byteOffset" : 12, "componentType" : 5126, "count" : 752, "type" : "VEC3", "max" : [1.0000044107437134, 0.9989974498748779, 1.0000044107437134], "min" : [-0.9961991310119629, -0.9989974498748779, -1.0000044107437134], "name" : "NORMAL"}], "asset" : {"generator" : "Aspose.3D 21.12", "version" : "2.0"}, "buffers" : [{"uri" : "data:application/octet-stream;base64,", "byteLength" : 22160}], "bufferViews" : [{"buffer" : 0, "byteOffset" : 0, "byteLength" : 1704, "target" : 34963}, {"buffer" : 0, "byteOffset" : 1708, "byteLength" : 20448, "byteStride" : 24, "target" : 34962}], "meshes" : [{"primitives" : [{"attributes" : {"POSITION" : 1, "NORMAL" : 2}, "indices" : 0, "mode" : 4}], "name" : ""}], "nodes" : [{"mesh" : 0, "name" : ""}], "scene" : 0, "scenes" : [{"nodes" : [0]}]}