{"accessors" : [{"bufferView" : 0, "byteOffset" : 0, "componentType" : 5123, "count" : 5520, "type" : "SCALAR", "max" : [5269], "min" : [0]}, {"bufferView" : 1, "byteOffset" : 0, "componentType" : 5126, "count" : 5270, "type" : "VEC3", "max" : [4680, 1280, 3580], "min" : [1420, 1070, 3000], "name" : "POSITION"}, {"bufferView" : 1, "byteOffset" : 12, "componentType" : 5126, "count" : 5270, "type" : "VEC3", "max" : [0.9990699887275696, 0.9986788034439087, 0.9987417459487915], "min" : [-0.9990699887275696, -0.9986788034439087, -1.0000044107437134], "name" : "NORMAL"}], "asset" : {"generator" : "Aspose.3D 21.12", "version" : "2.0"}, "buffers" : [{"uri" : "data:application/octet-stream;base64,", "byteLength" : 143528}], "bufferViews" : [{"buffer" : 0, "byteOffset" : 0, "byteLength" : 11040, "target" : 34963}, {"buffer" : 0, "byteOffset" : 11044, "byteLength" : 132480, "byteStride" : 24, "target" : 34962}], "meshes" : [{"primitives" : [{"attributes" : {"POSITION" : 1, "NORMAL" : 2}, "indices" : 0, "mode" : 4}], "name" : ""}], "nodes" : [{"mesh" : 0, "name" : ""}], "scene" : 0, "scenes" : [{"nodes" : [0]}]}