{
    "asset" : {
        "generator" : "Khronos glTF Blender I/O v1.7.33",
        "version" : "2.0"
    },
    "scene" : 0,
    "scenes" : [
        {
            "name" : "Scene",
            "nodes" : [
                19,
                20
            ]
        }
    ],
    "nodes" : [
        {
            "name" : "Hand.Left",
            "rotation" : [
                -0.006391552742570639,
                0.007367492653429508,
                -0.07295279204845428,
                0.9972878098487854
            ],
            "scale" : [
                1.0000001192092896,
                1.0000001192092896,
                1
            ],
            "translation" : [
                -7.200224416692436e-08,
                0.2787817120552063,
                2.682950750454438e-09
            ]
        },
        {
            "children" : [
                0
            ],
            "name" : "Forearm.Left",
            "rotation" : [
                0.13505665957927704,
                0.08251109719276428,
                -0.016807230189442635,
                0.9872533679008484
            ],
            "scale" : [
                1,
                0.9999999403953552,
                1.0000001192092896
            ],
            "translation" : [
                -1.5146520127018448e-07,
                0.3204497694969177,
                4.128002473180459e-08
            ]
        },
        {
            "children" : [
                1
            ],
            "name" : "Upperarm.Left",
            "rotation" : [
                0.12479737401008606,
                0.7700759768486023,
                0.328120619058609,
                0.5326776504516602
            ],
            "scale" : [
                1,
                0.9999998807907104,
                1
            ],
            "translation" : [
                -3.845691765036463e-08,
                0.20904448628425598,
                -7.441570204491654e-08
            ]
        },
        {
            "children" : [
                2
            ],
            "name" : "Shoulder.Left",
            "rotation" : [
                -0.47244706749916077,
                0.32545724511146545,
                0.6745140552520752,
                0.46465277671813965
            ],
            "scale" : [
                0.9999999403953552,
                0.9999999403953552,
                0.9999999403953552
            ],
            "translation" : [
                1.573810060051528e-08,
                0.40198054909706116,
                1.2684442829424825e-08
            ]
        },
        {
            "name" : "Head",
            "rotation" : [
                -8.883313284968608e-07,
                7.586214678667602e-08,
                -0.00018981395987793803,
                1
            ],
            "scale" : [
                1,
                0.9999999403953552,
                1
            ],
            "translation" : [
                4.58272308989649e-13,
                0.40198054909706116,
                -1.3195206038929541e-09
            ]
        },
        {
            "name" : "Hand.Right",
            "rotation" : [
                -0.007267460692673922,
                -0.019341664388775826,
                0.07287055999040604,
                0.9971274733543396
            ],
            "scale" : [
                0.9999999403953552,
                1,
                1
            ],
            "translation" : [
                7.594455553316948e-08,
                0.2787816524505615,
                6.334546220898574e-09
            ]
        },
        {
            "children" : [
                5
            ],
            "name" : "Forearm.Right",
            "rotation" : [
                0.13503441214561462,
                -0.06008158624172211,
                0.016985410824418068,
                0.9888718128204346
            ],
            "scale" : [
                1.0000001192092896,
                1,
                1.0000001192092896
            ],
            "translation" : [
                -4.842877388000488e-08,
                0.32044973969459534,
                -4.6566128730773926e-09
            ]
        },
        {
            "children" : [
                6
            ],
            "name" : "Upperarm.Right",
            "rotation" : [
                -0.34544122219085693,
                0.7785837650299072,
                -0.0036861435510218143,
                0.523893415927887
            ],
            "scale" : [
                0.9999997615814209,
                1,
                1.0000001192092896
            ],
            "translation" : [
                1.7739118618465e-08,
                0.2090444415807724,
                7.889759956469788e-08
            ]
        },
        {
            "children" : [
                7
            ],
            "name" : "Shoulder.Right",
            "rotation" : [
                0.45357829332351685,
                0.3122045695781708,
                -0.6876025795936584,
                0.47328418493270874
            ],
            "scale" : [
                1.0000001192092896,
                0.9999999403953552,
                1
            ],
            "translation" : [
                4.58272308989649e-13,
                0.40198054909706116,
                -1.3195206038929541e-09
            ]
        },
        {
            "children" : [
                3,
                4,
                8
            ],
            "name" : "Back",
            "rotation" : [
                0.0004744997713714838,
                0.9999998211860657,
                4.886602482656599e-07,
                0.00033684170921333134
            ],
            "scale" : [
                1,
                0.9999998211860657,
                1
            ],
            "translation" : [
                -1.0408340855860843e-17,
                0.2680197060108185,
                -4.0985002058846476e-09
            ]
        },
        {
            "name" : "Foot.Left",
            "rotation" : [
                0.6893818378448486,
                -0.046448715031147,
                0.011417445726692677,
                0.7228173017501831
            ],
            "scale" : [
                1,
                0.9999998807907104,
                1
            ],
            "translation" : [
                3.825050498562632e-08,
                0.5272332429885864,
                -3.3881799588186823e-09
            ]
        },
        {
            "children" : [
                10
            ],
            "name" : "Shin.Left",
            "rotation" : [
                -0.11853630095720291,
                0.09826301783323288,
                -0.003224168438464403,
                0.9880704283714294
            ],
            "scale" : [
                0.9999998211860657,
                0.9999998211860657,
                0.9999998211860657
            ],
            "translation" : [
                -5.511698653037911e-09,
                0.3800518810749054,
                2.1347165812812818e-08
            ]
        },
        {
            "children" : [
                11
            ],
            "name" : "Thigh.Left",
            "rotation" : [
                0.0979958325624466,
                -0.2894063889980316,
                -0.16220958530902863,
                0.9382584095001221
            ],
            "scale" : [
                1,
                1.0000001192092896,
                1
            ],
            "translation" : [
                1.0811044504066558e-08,
                0.2866705060005188,
                -5.231584943032885e-09
            ]
        },
        {
            "children" : [
                12
            ],
            "name" : "Hip.Left",
            "rotation" : [
                0.22494499385356903,
                0.04820256307721138,
                -0.951450526714325,
                0.20449507236480713
            ],
            "scale" : [
                1.0000011920928955,
                1.0000001192092896,
                0.9999999403953552
            ],
            "translation" : [
                3.0704188080932227e-09,
                0.2680196762084961,
                -5.76244962857686e-09
            ]
        },
        {
            "name" : "Foot.Right",
            "rotation" : [
                0.6894456744194031,
                0.050605885684490204,
                -0.008110524155199528,
                0.7225219011306763
            ],
            "scale" : [
                0.9999998807907104,
                1,
                0.9999999403953552
            ],
            "translation" : [
                -2.1415895723464473e-09,
                0.527232825756073,
                1.0634904068496098e-09
            ]
        },
        {
            "children" : [
                14
            ],
            "name" : "Shin.Right",
            "rotation" : [
                -0.1180868074297905,
                -0.036738522350788116,
                0.010779629461467266,
                0.9922648668289185
            ],
            "scale" : [
                0.9999998807907104,
                1,
                1
            ],
            "translation" : [
                1.3528643982851918e-08,
                0.3800520896911621,
                1.3973052936933072e-08
            ]
        },
        {
            "children" : [
                15
            ],
            "name" : "Thigh.Right",
            "rotation" : [
                0.11265362799167633,
                0.25842830538749695,
                0.15239612758159637,
                0.9472588896751404
            ],
            "scale" : [
                1.0000001192092896,
                1.0000001192092896,
                1.0000001192092896
            ],
            "translation" : [
                1.862645149230957e-08,
                0.28667041659355164,
                -1.955777406692505e-08
            ]
        },
        {
            "children" : [
                16
            ],
            "name" : "Hip.Right",
            "rotation" : [
                0.25283822417259216,
                -0.054622042924165726,
                0.9442969560623169,
                0.2034519910812378
            ],
            "scale" : [
                1,
                1.0000001192092896,
                1
            ],
            "translation" : [
                0.00030521207372657955,
                0.26801955699920654,
                2.0142574896908627e-07
            ]
        },
        {
            "children" : [
                9,
                13,
                17
            ],
            "name" : "Hip",
            "rotation" : [
                -2.700652430576156e-07,
                0.0003366908640600741,
                0.00028468616073951125,
                1
            ],
            "scale" : [
                1,
                0.9999999403953552,
                1
            ],
            "translation" : [
                4.24215480451795e-12,
                -0.06000000983476639,
                -0.07000000029802322
            ]
        },
        {
            "children" : [
                18
            ],
            "name" : "ArmLow",
            "translation" : [
                0,
                1.0082759857177734,
                0.0903756320476532
            ]
        },
        {
            "mesh" : 0,
            "name" : "HumanLow",
            "skin" : 0
        }
    ],
    "meshes" : [
        {
            "name" : "Cube",
            "primitives" : [
                {
                    "attributes" : {
                        "POSITION" : 0,
                        "NORMAL" : 1,
                        "TEXCOORD_0" : 2,
                        "JOINTS_0" : 3,
                        "WEIGHTS_0" : 4
                    },
                    "indices" : 5
                }
            ]
        }
    ],
    "skins" : [
        {
            "inverseBindMatrices" : 6,
            "joints" : [
                18,
                9,
                3,
                2,
                1,
                0,
                4,
                8,
                7,
                6,
                5,
                13,
                12,
                11,
                10,
                17,
                16,
                15,
                14
            ],
            "name" : "ArmLow"
        }
    ],
    "accessors" : [
        {
            "bufferView" : 0,
            "componentType" : 5126,
            "count" : 308,
            "max" : [
                0.40322551131248474,
                1.9650678634643555,
                0.24917149543762207
            ],
            "min" : [
                -0.4032253623008728,
                -0.0010250022169202566,
                -0.14267945289611816
            ],
            "type" : "VEC3"
        },
        {
            "bufferView" : 1,
            "componentType" : 5126,
            "count" : 308,
            "type" : "VEC3"
        },
        {
            "bufferView" : 2,
            "componentType" : 5126,
            "count" : 308,
            "type" : "VEC2"
        },
        {
            "bufferView" : 3,
            "componentType" : 5121,
            "count" : 308,
            "type" : "VEC4"
        },
        {
            "bufferView" : 4,
            "componentType" : 5126,
            "count" : 308,
            "type" : "VEC4"
        },
        {
            "bufferView" : 5,
            "componentType" : 5123,
            "count" : 738,
            "type" : "SCALAR"
        },
        {
            "bufferView" : 6,
            "componentType" : 5126,
            "count" : 19,
            "type" : "MAT4"
        }
    ],
    "bufferViews" : [
        {
            "buffer" : 0,
            "byteLength" : 3696,
            "byteOffset" : 0
        },
        {
            "buffer" : 0,
            "byteLength" : 3696,
            "byteOffset" : 3696
        },
        {
            "buffer" : 0,
            "byteLength" : 2464,
            "byteOffset" : 7392
        },
        {
            "buffer" : 0,
            "byteLength" : 1232,
            "byteOffset" : 9856
        },
        {
            "buffer" : 0,
            "byteLength" : 4928,
            "byteOffset" : 11088
        },
        {
            "buffer" : 0,
            "byteLength" : 1476,
            "byteOffset" : 16016
        },
        {
            "buffer" : 0,
            "byteLength" : 1216,
            "byteOffset" : 17492
        }
    ],
    "buffers" : [
        {
            "byteLength" : 18708,
            "uri" : "data:application/octet-stream;base64,"
        }
    ]
}
